<svg width="24" height="24" viewBox="0 0 24 24" fill="none" xmlns="http://www.w3.org/2000/svg">
<path d="M24 1.33333C24 2.06971 23.403 2.66667 22.6667 2.66667H1.33333C0.596954 2.66667 0 2.06971 0 1.33333C0 0.596954 0.596954 0 1.33333 0H22.6667C23.403 0 24 0.596954 24 1.33333ZM24 22.6667C24 23.403 23.403 24 22.6667 24H1.33333C0.596954 24 0 23.403 0 22.6667C0 21.9303 0.596954 21.3333 1.33333 21.3333H22.6667C23.403 21.3333 24 21.9303 24 22.6667ZM24 11.9893C24 12.7198 23.4078 13.312 22.6773 13.312H1.32267C0.592178 13.312 0 12.7198 0 11.9893C0 11.2588 0.592178 10.6667 1.32267 10.6667H22.6773C23.4078 10.6667 24 11.2588 24 11.9893Z" fill="white"/>
</svg>
