<svg width="32" height="36" viewBox="0 0 32 36" fill="none" xmlns="http://www.w3.org/2000/svg">
<g filter="url(#filter0_dii_13964_1498)">
<path d="M19.3333 15.6667C19.8 15.6667 20.1944 15.5056 20.5167 15.1833C20.8389 14.8611 21 14.4667 21 14C21 13.5333 20.8389 13.1389 20.5167 12.8167C20.1944 12.4944 19.8 12.3333 19.3333 12.3333C18.8667 12.3333 18.4722 12.4944 18.15 12.8167C17.8278 13.1389 17.6667 13.5333 17.6667 14C17.6667 14.4667 17.8278 14.8611 18.15 15.1833C18.4722 15.5056 18.8667 15.6667 19.3333 15.6667ZM12.6667 15.6667C13.1333 15.6667 13.5278 15.5056 13.85 15.1833C14.1722 14.8611 14.3333 14.4667 14.3333 14C14.3333 13.5333 14.1722 13.1389 13.85 12.8167C13.5278 12.4944 13.1333 12.3333 12.6667 12.3333C12.2 12.3333 11.8056 12.4944 11.4833 12.8167C11.1611 13.1389 11 13.5333 11 14C11 14.4667 11.1611 14.8611 11.4833 15.1833C11.8056 15.5056 12.2 15.6667 12.6667 15.6667ZM16 22.6667C17.3333 22.6667 18.5389 22.3 19.6167 21.5667C20.6944 20.8333 21.4889 19.8667 22 18.6667H10C10.5111 19.8667 11.3056 20.8333 12.3833 21.5667C13.4611 22.3 14.6667 22.6667 16 22.6667ZM16 28C14.3333 28 12.7722 27.6833 11.3167 27.05C9.86111 26.4167 8.59444 25.5611 7.51667 24.4833C6.43889 23.4056 5.58333 22.1389 4.95 20.6833C4.31667 19.2278 4 17.6667 4 16C4 14.3333 4.31667 12.7722 4.95 11.3167C5.58333 9.86111 6.43889 8.59444 7.51667 7.51667C8.59444 6.43889 9.86111 5.58333 11.3167 4.95C12.7722 4.31667 14.3333 4 16 4C17.6667 4 19.2278 4.31667 20.6833 4.95C22.1389 5.58333 23.4056 6.43889 24.4833 7.51667C25.5611 8.59444 26.4167 9.86111 27.05 11.3167C27.6833 12.7722 28 14.3333 28 16C28 17.6667 27.6833 19.2278 27.05 20.6833C26.4167 22.1389 25.5611 23.4056 24.4833 24.4833C23.4056 25.5611 22.1389 26.4167 20.6833 27.05C19.2278 27.6833 17.6667 28 16 28ZM16.5333 11.3333C16.9111 11.3333 17.3389 11.2611 17.8167 11.1167C18.2944 10.9722 18.5333 10.6444 18.5333 10.1333C18.5333 9.86667 18.4444 9.63333 18.2667 9.43333C18.0889 9.23333 17.8667 9.13333 17.6 9.13333C17.4222 9.13333 17.25 9.16667 17.0833 9.23333C16.9167 9.3 16.7333 9.33333 16.5333 9.33333C16.0667 9.33333 15.6722 9.17222 15.35 8.85C15.0278 8.52778 14.8667 8.13333 14.8667 7.66667C14.8667 7.42222 14.9056 7.21667 14.9833 7.05C15.0611 6.88333 15.1778 6.76667 15.3333 6.7C14.9111 6.74444 14.5 6.8 14.1 6.86667C13.7 6.93333 13.3111 7.04444 12.9333 7.2C12.9111 7.26667 12.8944 7.34444 12.8833 7.43333C12.8722 7.52222 12.8667 7.6 12.8667 7.66667C12.8667 8.66667 13.2278 9.52778 13.95 10.25C14.6722 10.9722 15.5333 11.3333 16.5333 11.3333Z" fill="#FE8C00"/>
</g>
<defs>
<filter id="filter0_dii_13964_1498" x="0" y="0" width="32" height="36" filterUnits="userSpaceOnUse" color-interpolation-filters="sRGB">
<feFlood flood-opacity="0" result="BackgroundImageFix"/>
<feColorMatrix in="SourceAlpha" type="matrix" values="0 0 0 0 0 0 0 0 0 0 0 0 0 0 0 0 0 0 127 0" result="hardAlpha"/>
<feOffset dy="4"/>
<feGaussianBlur stdDeviation="2"/>
<feComposite in2="hardAlpha" operator="out"/>
<feColorMatrix type="matrix" values="0 0 0 0 0 0 0 0 0 0 0 0 0 0 0 0 0 0 0.25 0"/>
<feBlend mode="normal" in2="BackgroundImageFix" result="effect1_dropShadow_13964_1498"/>
<feBlend mode="normal" in="SourceGraphic" in2="effect1_dropShadow_13964_1498" result="shape"/>
<feColorMatrix in="SourceAlpha" type="matrix" values="0 0 0 0 0 0 0 0 0 0 0 0 0 0 0 0 0 0 127 0" result="hardAlpha"/>
<feOffset dy="-4"/>
<feGaussianBlur stdDeviation="2.5"/>
<feComposite in2="hardAlpha" operator="arithmetic" k2="-1" k3="1"/>
<feColorMatrix type="matrix" values="0 0 0 0 0.992157 0 0 0 0 0.32549 0 0 0 0 0.117647 0 0 0 0.7 0"/>
<feBlend mode="normal" in2="shape" result="effect2_innerShadow_13964_1498"/>
<feColorMatrix in="SourceAlpha" type="matrix" values="0 0 0 0 0 0 0 0 0 0 0 0 0 0 0 0 0 0 127 0" result="hardAlpha"/>
<feOffset dy="1"/>
<feGaussianBlur stdDeviation="1"/>
<feComposite in2="hardAlpha" operator="arithmetic" k2="-1" k3="1"/>
<feColorMatrix type="matrix" values="0 0 0 0 0 0 0 0 0 0 0 0 0 0 0 0 0 0 0.25 0"/>
<feBlend mode="normal" in2="effect2_innerShadow_13964_1498" result="effect3_innerShadow_13964_1498"/>
</filter>
</defs>
</svg>
