<svg width="34" height="34" viewBox="0 0 34 34" fill="none" xmlns="http://www.w3.org/2000/svg">
<g filter="url(#filter0_dii_14192_2651)">
<path d="M18.0873 14.7794C18.5082 14.7794 18.864 14.6341 19.1547 14.3434C19.4453 14.0528 19.5906 13.697 19.5906 13.276C19.5906 12.8551 19.4453 12.4993 19.1547 12.2086C18.864 11.918 18.5082 11.7727 18.0873 11.7727C17.6663 11.7727 17.3105 11.918 17.0199 12.2086C16.7292 12.4993 16.5839 12.8551 16.5839 13.276C16.5839 13.697 16.7292 14.0528 17.0199 14.3434C17.3105 14.6341 17.6663 14.7794 18.0873 14.7794ZM12.0738 14.7794C12.4948 14.7794 12.8506 14.6341 13.1412 14.3434C13.4319 14.0528 13.5772 13.697 13.5772 13.276C13.5772 12.8551 13.4319 12.4993 13.1412 12.2086C12.8506 11.918 12.4948 11.7727 12.0738 11.7727C11.6529 11.7727 11.2971 11.918 11.0064 12.2086C10.7158 12.4993 10.5705 12.8551 10.5705 13.276C10.5705 13.697 10.7158 14.0528 11.0064 14.3434C11.2971 14.6341 11.6529 14.7794 12.0738 14.7794ZM15.0806 21.0935C16.2832 21.0935 17.3707 20.7628 18.3429 20.1013C19.315 19.4398 20.0316 18.5679 20.4927 17.4854H9.66845C10.1295 18.5679 10.8461 19.4398 11.8183 20.1013C12.7904 20.7628 13.8779 21.0935 15.0806 21.0935ZM15.0806 25.9043C13.5772 25.9043 12.169 25.6186 10.8561 25.0474C9.54317 24.4761 8.40062 23.7044 7.42844 22.7322C6.45627 21.76 5.68454 20.6175 5.11326 19.3045C4.54199 17.9916 4.25635 16.5834 4.25635 15.0801C4.25635 13.5767 4.54199 12.1686 5.11326 10.8556C5.68454 9.54268 6.45627 8.40013 7.42844 7.42795C8.40062 6.45578 9.54317 5.68405 10.8561 5.11278C12.169 4.5415 13.5772 4.25586 15.0806 4.25586C16.5839 4.25586 17.9921 4.5415 19.305 5.11278C20.6179 5.68405 21.7605 6.45578 22.7327 7.42795C23.7048 8.40013 24.4766 9.54268 25.0478 10.8556C25.6191 12.1686 25.9048 13.5767 25.9048 15.0801C25.9048 16.5834 25.6191 17.9916 25.0478 19.3045C24.4766 20.6175 23.7048 21.76 22.7327 22.7322C21.7605 23.7044 20.6179 24.4761 19.305 25.0474C17.9921 25.6186 16.5839 25.9043 15.0806 25.9043ZM15.5616 10.8707C15.9024 10.8707 16.2883 10.8055 16.7192 10.6752C17.1502 10.5449 17.3657 10.2493 17.3657 9.78823C17.3657 9.54769 17.2855 9.33722 17.1251 9.15682C16.9648 8.97642 16.7643 8.88621 16.5238 8.88621C16.3634 8.88621 16.2081 8.91628 16.0577 8.97642C15.9074 9.03655 15.742 9.06662 15.5616 9.06662C15.1407 9.06662 14.7849 8.92129 14.4942 8.63064C14.2036 8.33999 14.0583 7.9842 14.0583 7.56326C14.0583 7.34276 14.0933 7.15735 14.1635 7.00701C14.2337 6.85668 14.3389 6.75144 14.4792 6.69131C14.0984 6.7314 13.7275 6.78151 13.3667 6.84164C13.0059 6.90178 12.6551 7.002 12.3144 7.14231C12.2943 7.20245 12.2793 7.27261 12.2693 7.35279C12.2592 7.43296 12.2542 7.50312 12.2542 7.56326C12.2542 8.46527 12.58 9.24201 13.2314 9.89347C13.8829 10.5449 14.6596 10.8707 15.5616 10.8707Z" fill="#FE8C00"/>
</g>
<defs>
<filter id="filter0_dii_14192_2651" x="0.648278" y="0.64779" width="28.8646" height="32.4726" filterUnits="userSpaceOnUse" color-interpolation-filters="sRGB">
<feFlood flood-opacity="0" result="BackgroundImageFix"/>
<feColorMatrix in="SourceAlpha" type="matrix" values="0 0 0 0 0 0 0 0 0 0 0 0 0 0 0 0 0 0 127 0" result="hardAlpha"/>
<feOffset dy="3.60807"/>
<feGaussianBlur stdDeviation="1.80403"/>
<feComposite in2="hardAlpha" operator="out"/>
<feColorMatrix type="matrix" values="0 0 0 0 0 0 0 0 0 0 0 0 0 0 0 0 0 0 0.25 0"/>
<feBlend mode="normal" in2="BackgroundImageFix" result="effect1_dropShadow_14192_2651"/>
<feBlend mode="normal" in="SourceGraphic" in2="effect1_dropShadow_14192_2651" result="shape"/>
<feColorMatrix in="SourceAlpha" type="matrix" values="0 0 0 0 0 0 0 0 0 0 0 0 0 0 0 0 0 0 127 0" result="hardAlpha"/>
<feOffset dy="-3.60807"/>
<feGaussianBlur stdDeviation="2.25504"/>
<feComposite in2="hardAlpha" operator="arithmetic" k2="-1" k3="1"/>
<feColorMatrix type="matrix" values="0 0 0 0 0.992157 0 0 0 0 0.32549 0 0 0 0 0.117647 0 0 0 0.7 0"/>
<feBlend mode="normal" in2="shape" result="effect2_innerShadow_14192_2651"/>
<feColorMatrix in="SourceAlpha" type="matrix" values="0 0 0 0 0 0 0 0 0 0 0 0 0 0 0 0 0 0 127 0" result="hardAlpha"/>
<feOffset dy="0.902017"/>
<feGaussianBlur stdDeviation="0.902017"/>
<feComposite in2="hardAlpha" operator="arithmetic" k2="-1" k3="1"/>
<feColorMatrix type="matrix" values="0 0 0 0 0 0 0 0 0 0 0 0 0 0 0 0 0 0 0.25 0"/>
<feBlend mode="normal" in2="effect2_innerShadow_14192_2651" result="effect3_innerShadow_14192_2651"/>
</filter>
</defs>
</svg>
