<svg width="86" height="86" viewBox="0 0 86 86" fill="none" xmlns="http://www.w3.org/2000/svg">
<g filter="url(#filter0_dii_13863_3170)">
<path d="M17.1329 47.3484V57.7364C17.1329 60.4351 18.5041 62.9489 20.6979 64.2428L37.8368 74.335C39.8935 75.555 42.3615 75.555 44.4182 74.335L61.5572 64.2428C63.751 62.9489 65.1221 60.4351 65.1221 57.7364V47.3484L44.4182 59.5478C42.3615 60.7678 39.8935 60.7678 37.8368 59.5478L17.1329 47.3484ZM37.8368 11.6372L8.94051 28.6425C6.57533 30.0473 6.57533 33.7441 8.94051 35.1489L37.8368 52.1542C39.8935 53.3742 42.3615 53.3742 44.4182 52.1542L71.9777 35.9252V57.7734C71.9777 59.8066 73.5202 61.4702 75.4055 61.4702C77.2908 61.4702 78.8333 59.8066 78.8333 57.7734V34.0768C78.8333 32.709 78.1477 31.4891 77.0508 30.8237L44.4182 11.6372C42.3615 10.4543 39.8935 10.4543 37.8368 11.6372Z" fill="#FE8C00"/>
</g>
<defs>
<filter id="filter0_dii_13863_3170" x="3.16663" y="5.75" width="79.6666" height="77.5" filterUnits="userSpaceOnUse" color-interpolation-filters="sRGB">
<feFlood flood-opacity="0" result="BackgroundImageFix"/>
<feColorMatrix in="SourceAlpha" type="matrix" values="0 0 0 0 0 0 0 0 0 0 0 0 0 0 0 0 0 0 127 0" result="hardAlpha"/>
<feOffset dy="4"/>
<feGaussianBlur stdDeviation="2"/>
<feComposite in2="hardAlpha" operator="out"/>
<feColorMatrix type="matrix" values="0 0 0 0 0 0 0 0 0 0 0 0 0 0 0 0 0 0 0.25 0"/>
<feBlend mode="normal" in2="BackgroundImageFix" result="effect1_dropShadow_13863_3170"/>
<feBlend mode="normal" in="SourceGraphic" in2="effect1_dropShadow_13863_3170" result="shape"/>
<feColorMatrix in="SourceAlpha" type="matrix" values="0 0 0 0 0 0 0 0 0 0 0 0 0 0 0 0 0 0 127 0" result="hardAlpha"/>
<feOffset dy="-5"/>
<feGaussianBlur stdDeviation="5"/>
<feComposite in2="hardAlpha" operator="arithmetic" k2="-1" k3="1"/>
<feColorMatrix type="matrix" values="0 0 0 0 0.972549 0 0 0 0 0.211765 0 0 0 0 0 0 0 0 0.7 0"/>
<feBlend mode="normal" in2="shape" result="effect2_innerShadow_13863_3170"/>
<feColorMatrix in="SourceAlpha" type="matrix" values="0 0 0 0 0 0 0 0 0 0 0 0 0 0 0 0 0 0 127 0" result="hardAlpha"/>
<feOffset dy="1"/>
<feGaussianBlur stdDeviation="1"/>
<feComposite in2="hardAlpha" operator="arithmetic" k2="-1" k3="1"/>
<feColorMatrix type="matrix" values="0 0 0 0 0 0 0 0 0 0 0 0 0 0 0 0 0 0 0.4 0"/>
<feBlend mode="normal" in2="effect2_innerShadow_13863_3170" result="effect3_innerShadow_13863_3170"/>
</filter>
</defs>
</svg>
