<svg width="116" height="31" viewBox="0 0 116 31" fill="none" xmlns="http://www.w3.org/2000/svg">
<g clip-path="url(#clip0_13232_9265)">
<mask id="mask0_13232_9265" style="mask-type:alpha" maskUnits="userSpaceOnUse" x="0" y="-2" width="116" height="33">
<rect y="-2" width="116" height="32.3338" fill="black"/>
</mask>
<g mask="url(#mask0_13232_9265)">
<path fill-rule="evenodd" clip-rule="evenodd" d="M80.6112 3.47461C74.6499 3.47461 69.8159 8.3061 69.8159 14.2621V30.3346H74.449V23.1294C76.2013 24.3434 78.3212 25.0618 80.6112 25.0618C86.5758 25.0618 91.4135 20.2255 91.4135 14.2621C91.4135 8.3061 86.5758 3.47461 80.6112 3.47461M80.6118 20.4422C77.2013 20.4422 74.4321 17.6817 74.4321 14.2621C74.4321 10.8598 77.2013 8.0924 80.6118 8.0924C84.0298 8.0924 86.7914 10.8598 86.7914 14.2621C86.7914 17.6817 84.0298 20.4422 80.6118 20.4422Z" fill="white"/>
<path d="M37.2121 4.50977V14.6203C37.2121 18.8254 35.4995 20.5198 31.8563 20.5198C28.2034 20.5198 26.5049 18.8254 26.5049 14.6203V4.50977H21.8665V14.0561C21.8665 21.8558 26.0433 25.1204 31.8563 25.1204C37.6711 25.1204 41.8545 21.8558 41.8545 14.0561V4.50977L37.2121 4.50977Z" fill="white"/>
<path d="M13.8619 24.3652H20.5466L10.4774 13.435L18.843 4.4967H12.3813L4.64872 12.7966V-2H0V24.3652H4.64872V19.2166L7.15294 16.7311L13.8619 24.3652Z" fill="white"/>
<path fill-rule="evenodd" clip-rule="evenodd" d="M111.358 4.08432V7.41052C110.719 5.93287 108.36 3.42755 104.63 3.41222C98.6557 3.38487 93.8126 8.25093 93.8126 14.2288C93.8126 20.1926 98.6557 25.0364 104.63 25.0364C108.4 25.0364 110.602 22.7151 111.358 20.9994V24.3652H115.998V4.08432H111.358ZM104.63 20.3955C101.222 20.3955 98.454 17.6307 98.454 14.2288C98.454 10.8145 101.222 8.05372 104.63 8.05372C108.042 8.05372 110.806 10.8145 110.806 14.2288C110.806 17.6307 108.042 20.3955 104.63 20.3955Z" fill="white"/>
<path fill-rule="evenodd" clip-rule="evenodd" d="M66.6998 15.9068C66.7846 15.355 66.8427 14.7962 66.8427 14.2218C66.8427 8.25352 62.0027 3.41602 56.0309 3.41602C50.0594 3.41602 45.2181 8.25352 45.2181 14.2218C45.2181 20.1886 50.0594 25.0273 56.0309 25.0273C60.4666 25.0273 64.2726 22.3542 65.9419 18.536H60.4774C59.5315 19.7822 58.4358 20.6488 56.0309 20.6488C53.1838 20.6488 50.7866 18.5724 50.0654 15.9068L66.6998 15.9068ZM56.0294 7.90602C58.6861 7.90602 60.9488 9.67162 61.8271 12.0615H50.2308C51.1076 9.67162 53.3733 7.90602 56.0294 7.90602Z" fill="white"/>
</g>
</g>
<defs>
<clipPath id="clip0_13232_9265">
<rect width="116" height="32.3338" fill="white" transform="translate(0 -2)"/>
</clipPath>
</defs>
</svg>
