<svg width="100" height="100" viewBox="0 0 100 100" fill="none" xmlns="http://www.w3.org/2000/svg">
<path d="M44.375 65.6252L64.6875 52.6043C65.6598 51.9793 66.1459 51.1113 66.1459 50.0002C66.1459 48.8891 65.6598 48.021 64.6875 47.396L44.375 34.3752C43.3334 33.6807 42.2743 33.6286 41.198 34.2189C40.1216 34.8092 39.5834 35.7293 39.5834 36.9793V63.021C39.5834 64.271 40.1216 65.1911 41.198 65.7814C42.2743 66.3717 43.3334 66.3196 44.375 65.6252ZM50 91.6668C44.2362 91.6668 38.8195 90.5731 33.75 88.3856C28.6806 86.1981 24.2709 83.2293 20.5209 79.4793C16.7709 75.7293 13.8021 71.3196 11.6146 66.2502C9.42712 61.1807 8.33337 55.7641 8.33337 50.0002C8.33337 44.2363 9.42712 38.8196 11.6146 33.7502C13.8021 28.6807 16.7709 24.271 20.5209 20.521C24.2709 16.771 28.6806 13.8022 33.75 11.6147C38.8195 9.42725 44.2362 8.3335 50 8.3335C55.7639 8.3335 61.1806 9.42725 66.25 11.6147C71.3195 13.8022 75.7292 16.771 79.4792 20.521C83.2292 24.271 86.198 28.6807 88.3855 33.7502C90.573 38.8196 91.6667 44.2363 91.6667 50.0002C91.6667 55.7641 90.573 61.1807 88.3855 66.2502C86.198 71.3196 83.2292 75.7293 79.4792 79.4793C75.7292 83.2293 71.3195 86.1981 66.25 88.3856C61.1806 90.5731 55.7639 91.6668 50 91.6668Z" fill="url(#paint0_linear_13929_2576)"/>
<defs>
<linearGradient id="paint0_linear_13929_2576" x1="8.33337" y1="50.0002" x2="91.6667" y2="50.0002" gradientUnits="userSpaceOnUse">
<stop stop-color="#FE8C00"/>
<stop offset="1" stop-color="#F83600"/>
</linearGradient>
</defs>
</svg>
