<svg width="24" height="24" viewBox="0 0 24 24" fill="none" xmlns="http://www.w3.org/2000/svg">
<path d="M19.68 1.91992H4.32004C2.99668 1.91992 1.92004 2.99656 1.92004 4.31992V19.6799C1.92004 21.0033 2.99668 22.0799 4.32004 22.0799H19.68C21.0034 22.0799 22.08 21.0033 22.08 19.6799V4.31992C22.08 2.99656 21.0034 1.91992 19.68 1.91992ZM17.7629 10.715C17.654 10.725 17.5436 10.7318 17.4317 10.7318C16.1727 10.7318 15.0663 10.0842 14.4226 9.10552C14.4226 11.673 14.4226 14.5943 14.4226 14.6433C14.4226 16.9036 12.59 18.7362 10.3296 18.7362C8.06932 18.7362 6.23668 16.9036 6.23668 14.6433C6.23668 12.383 8.06932 10.5503 10.3296 10.5503C10.4151 10.5503 10.4986 10.558 10.5826 10.5633V12.5802C10.4986 12.5702 10.416 12.5548 10.3296 12.5548C9.17572 12.5548 8.24068 13.4898 8.24068 14.6438C8.24068 15.7977 9.17572 16.7327 10.3296 16.7327C11.4836 16.7327 12.5026 15.8236 12.5026 14.6697C12.5026 14.6241 12.5228 5.26456 12.5228 5.26456H14.4504C14.6319 6.98824 16.0234 8.34856 17.7629 8.47336V10.715Z" fill="white"/>
</svg>
