<svg width="32" height="32" viewBox="0 0 32 32" fill="none" xmlns="http://www.w3.org/2000/svg">
<path d="M9.24077 24.6256C8.85024 25.0161 8.21708 25.0161 7.82655 24.6256L7.3741 24.1731C6.98358 23.7826 6.98357 23.1494 7.3741 22.7589L13.4266 16.7065C13.8171 16.3159 13.8171 15.6828 13.4266 15.2922L7.3741 9.23979C6.98358 8.84927 6.98357 8.2161 7.3741 7.82558L7.82655 7.37312C8.21708 6.9826 8.85024 6.9826 9.24077 7.37312L15.2932 13.4256C15.6837 13.8161 16.3169 13.8161 16.7074 13.4256L22.7599 7.37312C23.1504 6.9826 23.7836 6.9826 24.1741 7.37312L24.6266 7.82558C25.0171 8.2161 25.0171 8.84926 24.6266 9.23979L18.5741 15.2922C18.1836 15.6828 18.1836 16.3159 18.5741 16.7065L24.6266 22.7589C25.0171 23.1494 25.0171 23.7826 24.6266 24.1731L24.1741 24.6256C23.7836 25.0161 23.1504 25.0161 22.7599 24.6256L16.7074 18.5731C16.3169 18.1826 15.6837 18.1826 15.2932 18.5731L9.24077 24.6256Z" fill="white"/>
</svg>
