<svg width="64" height="51" viewBox="0 0 64 51" fill="none" xmlns="http://www.w3.org/2000/svg">
<path d="M0 51V34.2361C0 27.7824 1.02716 21.8009 3.08148 16.2917C5.29383 10.7824 9.00741 5.35185 14.2222 0L23.4667 6.84722C19.358 11.412 16.5136 15.5833 14.9333 19.3611C13.5111 22.9815 12.8 26.838 12.8 30.9306L7.11111 26.9167H24.1778V51H0ZM39.8222 51V34.2361C39.8222 27.7824 40.8494 21.8009 42.9037 16.2917C45.1161 10.7824 48.8296 5.35185 54.0444 0L63.2889 6.84722C59.1802 11.412 56.3358 15.5833 54.7556 19.3611C53.3333 22.9815 52.6222 26.838 52.6222 30.9306L46.9333 26.9167H64V51H39.8222Z" fill="url(#paint0_linear_13053_19659)"/>
<defs>
<linearGradient id="paint0_linear_13053_19659" x1="0" y1="25.5" x2="64" y2="25.5" gradientUnits="userSpaceOnUse">
<stop stop-color="#FE8C00"/>
<stop offset="1" stop-color="#F83600"/>
</linearGradient>
</defs>
</svg>
