<svg width="200" height="57" viewBox="0 0 200 57" fill="none" xmlns="http://www.w3.org/2000/svg">
<g clip-path="url(#clip0_13971_31)">
<mask id="mask0_13971_31" style="mask-type:alpha" maskUnits="userSpaceOnUse" x="0" y="0" width="200" height="58">
<rect width="200" height="57.3338" fill="black"/>
</mask>
<g mask="url(#mask0_13971_31)">
<path fill-rule="evenodd" clip-rule="evenodd" d="M138.982 9.70605C128.703 9.70605 120.369 18.2732 120.369 28.8342V57.3337H128.357V44.5576C131.378 46.7104 135.033 47.9842 138.982 47.9842C149.265 47.9842 157.606 39.4085 157.606 28.8342C157.606 18.2732 149.265 9.70606 138.982 9.70606M138.982 39.7928C133.102 39.7928 128.327 34.8979 128.327 28.8342C128.327 22.8014 133.102 17.8942 138.982 17.8942C144.875 17.8942 149.636 22.8014 149.636 28.8342C149.636 34.8979 144.875 39.7928 138.982 39.7928Z" fill="#FD531E"/>
<path d="M64.1604 11.5425V29.4704C64.1604 36.9268 61.2077 39.9312 54.9262 39.9312C48.6282 39.9312 45.6998 36.9268 45.6998 29.4704V11.5425H37.7024V28.4699C37.7024 42.3003 44.9038 48.089 54.9262 48.089C64.9518 48.089 72.1646 42.3003 72.1646 28.4699V11.5425L64.1604 11.5425Z" fill="#FD531E"/>
<path d="M23.8999 46.7504H35.4252L18.0644 27.3691L32.488 11.5198H21.347L8.01504 26.237V0H0V46.7504H8.01504V37.621L12.3327 33.2138L23.8999 46.7504Z" fill="#FD531E"/>
<path fill-rule="evenodd" clip-rule="evenodd" d="M191.997 10.7891V16.6871C190.896 14.0669 186.829 9.62455 180.398 9.59737C170.097 9.54887 161.747 18.1773 161.747 28.7772C161.747 39.3521 170.097 47.9411 180.398 47.9411C186.898 47.9411 190.694 43.8249 191.997 40.7826V46.7509H199.998V10.7891H191.997ZM180.401 39.7106C174.524 39.7106 169.752 34.8082 169.752 28.776C169.752 22.7218 174.524 17.8264 180.401 17.8264C186.283 17.8264 191.049 22.7218 191.049 28.776C191.049 34.8082 186.283 39.7106 180.401 39.7106Z" fill="#FD531E"/>
<path fill-rule="evenodd" clip-rule="evenodd" d="M114.998 31.753C115.144 30.7745 115.244 29.7837 115.244 28.7651C115.244 18.1823 106.899 9.60449 96.603 9.60449C86.3073 9.60449 77.9603 18.1823 77.9603 28.7651C77.9603 39.3453 86.3073 47.9253 96.603 47.9253C104.251 47.9253 110.813 43.1855 113.691 36.415H104.27C102.639 38.6248 100.749 40.1613 96.603 40.1613C91.6942 40.1613 87.5612 36.4795 86.3176 31.753L114.998 31.753ZM96.6035 17.5655C101.184 17.5655 105.085 20.6962 106.599 24.9339H86.6059C88.1176 20.6962 92.0239 17.5655 96.6035 17.5655Z" fill="#FD531E"/>
</g>
</g>
<defs>
<clipPath id="clip0_13971_31">
<rect width="200" height="57.3338" fill="white"/>
</clipPath>
</defs>
</svg>
