<svg width="32" height="32" viewBox="0 0 32 32" fill="none" xmlns="http://www.w3.org/2000/svg">
<g filter="url(#filter0_dii_14192_2645)">
<path d="M17.3141 11.4716L13.1046 7.26215L17.3141 3.05273L21.5235 7.26215L17.3141 11.4716ZM4.08447 24.7011V19.8904C4.08447 19.2089 4.32 18.6376 4.79105 18.1766C5.26211 17.7155 5.82837 17.485 6.48985 17.485H10.4287C10.8296 17.485 11.2104 17.5852 11.5712 17.7857C11.932 17.9861 12.2227 18.2567 12.4432 18.5975C13.0245 19.3792 13.7411 19.9906 14.593 20.4316C15.4449 20.8726 16.3519 21.0931 17.3141 21.0931C18.2963 21.0931 19.2133 20.8726 20.0652 20.4316C20.9171 19.9906 21.6237 19.3792 22.185 18.5975C22.4455 18.2567 22.7512 17.9861 23.102 17.7857C23.4528 17.5852 23.8186 17.485 24.1995 17.485H28.1383C28.8198 17.485 29.3911 17.7155 29.8521 18.1766C30.3131 18.6376 30.5436 19.2089 30.5436 19.8904V24.7011H22.1248V21.965C21.4233 22.4662 20.6666 22.847 19.8547 23.1076C19.0429 23.3682 18.196 23.4985 17.3141 23.4985C16.4521 23.4985 15.6102 23.3632 14.7884 23.0926C13.9666 22.8219 13.2049 22.4361 12.5033 21.935V24.7011H4.08447ZM7.69254 16.2823C6.6903 16.2823 5.8384 15.9315 5.13683 15.23C4.43526 14.5284 4.08447 13.6765 4.08447 12.6743C4.08447 11.652 4.43526 10.795 5.13683 10.1035C5.8384 9.41196 6.6903 9.06618 7.69254 9.06618C8.71483 9.06618 9.57174 9.41196 10.2633 10.1035C10.9548 10.795 11.3006 11.652 11.3006 12.6743C11.3006 13.6765 10.9548 14.5284 10.2633 15.23C9.57174 15.9315 8.71483 16.2823 7.69254 16.2823ZM26.9356 16.2823C25.9333 16.2823 25.0814 15.9315 24.3799 15.23C23.6783 14.5284 23.3275 13.6765 23.3275 12.6743C23.3275 11.652 23.6783 10.795 24.3799 10.1035C25.0814 9.41196 25.9333 9.06618 26.9356 9.06618C27.9579 9.06618 28.8148 9.41196 29.5063 10.1035C30.1979 10.795 30.5436 11.652 30.5436 12.6743C30.5436 13.6765 30.1979 14.5284 29.5063 15.23C28.8148 15.9315 27.9579 16.2823 26.9356 16.2823Z" fill="#FE8C00"/>
</g>
<defs>
<filter id="filter0_dii_14192_2645" x="0.476403" y="-0.555335" width="33.6751" height="32.4726" filterUnits="userSpaceOnUse" color-interpolation-filters="sRGB">
<feFlood flood-opacity="0" result="BackgroundImageFix"/>
<feColorMatrix in="SourceAlpha" type="matrix" values="0 0 0 0 0 0 0 0 0 0 0 0 0 0 0 0 0 0 127 0" result="hardAlpha"/>
<feOffset dy="3.60807"/>
<feGaussianBlur stdDeviation="1.80403"/>
<feComposite in2="hardAlpha" operator="out"/>
<feColorMatrix type="matrix" values="0 0 0 0 0 0 0 0 0 0 0 0 0 0 0 0 0 0 0.25 0"/>
<feBlend mode="normal" in2="BackgroundImageFix" result="effect1_dropShadow_14192_2645"/>
<feBlend mode="normal" in="SourceGraphic" in2="effect1_dropShadow_14192_2645" result="shape"/>
<feColorMatrix in="SourceAlpha" type="matrix" values="0 0 0 0 0 0 0 0 0 0 0 0 0 0 0 0 0 0 127 0" result="hardAlpha"/>
<feOffset dy="-3.60807"/>
<feGaussianBlur stdDeviation="2.25504"/>
<feComposite in2="hardAlpha" operator="arithmetic" k2="-1" k3="1"/>
<feColorMatrix type="matrix" values="0 0 0 0 0.992157 0 0 0 0 0.32549 0 0 0 0 0.117647 0 0 0 0.7 0"/>
<feBlend mode="normal" in2="shape" result="effect2_innerShadow_14192_2645"/>
<feColorMatrix in="SourceAlpha" type="matrix" values="0 0 0 0 0 0 0 0 0 0 0 0 0 0 0 0 0 0 127 0" result="hardAlpha"/>
<feOffset dy="0.902017"/>
<feGaussianBlur stdDeviation="0.902017"/>
<feComposite in2="hardAlpha" operator="arithmetic" k2="-1" k3="1"/>
<feColorMatrix type="matrix" values="0 0 0 0 0 0 0 0 0 0 0 0 0 0 0 0 0 0 0.25 0"/>
<feBlend mode="normal" in2="effect2_innerShadow_14192_2645" result="effect3_innerShadow_14192_2645"/>
</filter>
</defs>
</svg>
